<?xml version="1.0" encoding="utf-8"?>
<!-- Generator: Adobe Illustrator 19.0.0, SVG Export Plug-In . SVG Version: 6.00 Build 0)  -->
<svg version="1.1"
	 id="svg8" xmlns:svg="http://www.w3.org/2000/svg" xmlns:dc="http://purl.org/dc/elements/1.1/" xmlns:cc="http://creativecommons.org/ns#" xmlns:rdf="http://www.w3.org/1999/02/22-rdf-syntax-ns#"
	 xmlns="http://www.w3.org/2000/svg" xmlns:xlink="http://www.w3.org/1999/xlink" x="0px" y="0px" viewBox="18 17.9 251 122"
	 style="enable-background:new 18 17.9 251 122;" xml:space="preserve">
<style type="text/css">
	.st0{fill:none;stroke:#000000;stroke-width:3;}
	.st1{opacity:0.72;}
	.st2{fill:none;}
	.st3{opacity:0.15;fill:url(#SVGID_1_);enable-background:new    ;}
	.st4{opacity:0.5;fill:url(#SVGID_2_);enable-background:new    ;}
	.st5{fill:url(#SVGID_3_);}
	.st6{opacity:3.000000e-002;fill:none;stroke:#FFFFFF;stroke-width:2;stroke-miterlimit:10;enable-background:new    ;}
</style>
<title  id="title1210">Logo</title>
<g>
	<g>
		<path d="M90.1,53.8L70.4,64H50.7l55.1-28.7v16.4l31.5-16.4V64h-15.8V53.8L90.1,70.1V53.8z"/>
		<path d="M105.8,64l7.9-4.1h19.7l-7.9,4.1H105.8z"/>
		<path d="M129.5,64L161,47.6h23.6l-15.8-8.2h74.8l-7.9,4.1h-39.4l7.9,4.1h23.6l-7.9,4.1h-47.3L149.1,64H129.5z"/>
		<path d="M200.4,64l7.9-4.1H228l-8,4.1H200.4z"/>
	</g>
	<line class="st0" x1="38.7" y1="70.1" x2="249.7" y2="70.1"/>
	<line class="st0" x1="38.7" y1="99.9" x2="249.7" y2="99.9"/>
	<g>
		<path d="M54.8,128.7c-5.8,0-10.3-0.5-13.6-1.5c-2.8-0.8-4.2-1.7-4.2-2.8c0-0.5,0.4-1,1.3-1.3c0.9-0.4,2.1-0.5,3.6-0.5
			c2,0,3.5,0.4,4.5,1.2c1.3,1.1,4.2,1.6,8.8,1.6c3.9,0,7.7-0.3,11.3-1c3.8-0.7,5.7-1.4,5.7-2.2c0-1.1-1.2-1.8-3.5-2.1
			c-1.7-0.2-5.1-0.4-10.1-0.4c-3.9,0-7.5-0.3-10.6-0.8c-4.2-0.7-6.3-1.7-6.2-3.1c0.1-1.7,2.4-3.2,7.1-4.6s9.8-2.1,15.4-2.1
			c2.2,0,5,0.2,8.2,0.6c4.1,0.5,6.1,1,6.1,1.7c0,0.4-0.4,0.8-1.2,1.2c-0.9,0.4-2.1,0.6-3.5,0.6c-1.1,0-2.7-0.1-4.8-0.3
			c-2.1-0.2-3.7-0.3-4.8-0.3c-2.9,0-5.7,0.3-8.3,0.8c-2.7,0.5-4.1,1.1-4.1,1.7c0,0.3,0.4,0.6,1.2,0.8c0.8,0.2,2.1,0.4,3.7,0.4
			c2.9,0.1,5.8,0.1,8.7,0.2c5,0.1,9,0.7,12,1.6c3.2,1,4.8,2.5,4.8,4.3c0,2.2-3.3,3.9-10,5C67.1,128.3,61.3,128.7,54.8,128.7z"/>
		<path d="M101.2,128.7c-4.2,0-7.8-0.5-10.8-1.6c-3.3-1.2-5.1-2.8-5.2-4.8c-0.2-1.9,1.2-3.6,4.1-5.1c3.5-1.8,8.3-2.6,14.4-2.6
			c4.5,0,8.2,0.7,10.8,2.1c2.4,1.2,3.6,2.8,3.6,4.6c0,2-1.4,3.7-4.2,5.1C110.8,127.9,106.5,128.7,101.2,128.7z M103.3,117.9
			c-2.8,0-5,0.5-6.6,1.4c-1.4,0.8-2,1.8-2,2.9c0,1,0.8,1.8,2.3,2.4c1.2,0.4,2.7,0.7,4.3,0.7c2,0,3.7-0.3,5.1-0.8
			c1.7-0.6,2.5-1.4,2.7-2.4C109.3,119.3,107.4,117.9,103.3,117.9z"/>
		<path d="M147.9,117.5c-0.5,0-1,0-1.7,0c-0.6,0-1.2,0-1.7,0c-0.9,0-2,0-3.2,0.1c0.4,3.5,0.6,5.7,0.6,6.8c0,0.1,0,0.3,0,0.6
			c0,0.3,0,0.6,0,0.7c0,2-1.6,3-4.9,3c-1.2,0-2.3-0.1-3.2-0.4c-1-0.3-1.5-0.7-1.5-1.2c0-0.3,0-0.8,0.1-1.4s0.1-1.1,0.1-1.4
			c0-1-0.2-3.3-0.6-6.7c-1.4,0-3.5-0.1-6.4-0.2s-4.3-0.7-4.3-1.7c0-0.5,0.4-0.9,1.3-1.2c0.9-0.3,2-0.5,3.3-0.5
			c0.8,0,2.8,0.1,5.8,0.2c0-0.3-0.1-0.7-0.2-1.4c-0.1-0.6-0.1-1-0.1-1.3c0-0.5,0.5-0.9,1.4-1.2c0.9-0.3,2.1-0.5,3.4-0.5
			c3.4,0,5,1.1,5,3.2l-0.1,1.1c1.4-0.1,2.6-0.1,3.4-0.1c2.6,0,4.4,0.1,5.4,0.2c1.8,0.2,2.7,0.8,2.7,1.6c0,0.5-0.4,0.9-1.3,1.2
			C150.4,117.4,149.3,117.5,147.9,117.5z"/>
		<path d="M173.9,128.5c-5.4,0-9.9-0.5-13.3-1.5c-3.8-1.1-5.7-2.6-5.7-4.6c0-2.2,1.5-4,4.5-5.5c3.4-1.7,7.9-2.5,13.6-2.5
			c4,0,7.2,0.2,9.8,0.7c3.4,0.6,5.1,1.6,5.1,3c0,0.9-1.4,1.8-4.2,2.5c-1.3,0.3-3.8,0.8-7.7,1.5l-11.5,1.9c1.1,0.4,2.4,0.8,4,1
			c1.5,0.2,3.3,0.3,5.3,0.3c3,0,5.6-0.2,7.7-0.7c1.9-0.4,3.4-0.6,4.5-0.6c2.4,0,3.5,0.4,3.5,1.3c0,1-1.9,1.8-5.7,2.4
			C180.9,128.2,177.5,128.5,173.9,128.5z M173,117.5c-2.1,0-3.9,0.3-5.4,0.8s-2.7,1.3-3.6,2.4c2.6-0.4,5.1-0.8,7.7-1.3
			c3.1-0.5,5.5-1,7.3-1.5C177.5,117.7,175.5,117.5,173,117.5z"/>
		<path d="M206.3,126c0,1.6-1.6,2.5-4.7,2.5c-1.4,0-2.5-0.2-3.4-0.5s-1.3-0.7-1.3-1.3v-17.8c0-0.5,0.5-0.9,1.4-1.2
			c0.9-0.3,2-0.4,3.4-0.4s2.4,0.2,3.3,0.5c0.9,0.3,1.3,0.7,1.3,1.2V126z"/>
		<path d="M228.9,128.7c-4.2,0-7.8-0.5-10.8-1.6c-3.3-1.2-5.1-2.8-5.2-4.8c-0.2-1.9,1.2-3.6,4.1-5.1c3.5-1.8,8.3-2.6,14.4-2.6
			c4.5,0,8.2,0.7,10.8,2.1c2.4,1.2,3.6,2.8,3.6,4.6c0,2-1.4,3.7-4.2,5.1C238.5,127.9,234.3,128.7,228.9,128.7z M231,117.9
			c-2.8,0-5,0.5-6.6,1.4c-1.4,0.8-2,1.8-2,2.9c0,1,0.8,1.8,2.3,2.4c1.2,0.4,2.7,0.7,4.3,0.7c2,0,3.7-0.3,5.1-0.8
			c1.7-0.6,2.5-1.4,2.7-2.4C237,119.3,235.1,117.9,231,117.9z"/>
	</g>
	<g class="st1">
		<line class="st2" x1="139.7" y1="85.1" x2="166.6" y2="89.8"/>
		<ellipse class="st2" cx="139.7" cy="85.1" rx="23" ry="17.2"/>
		<ellipse class="st2" cx="139.7" cy="85.1" rx="27.7" ry="20.6"/>
		<polyline class="st2" points="139.7,85.1 238.3,133.4 139.7,85.1 41,36.8 139.7,85.1 74.8,158.5 139.7,85.1 204.5,11.7 
			139.7,85.1 154.7,85.2 139.7,85.1 124.6,85.1 139.7,85.1 139.6,96.3 139.7,85.1 139.7,73.9 139.7,85.1 245.8,89 139.7,85.1 
			33.5,81.2 139.7,85.1 134.4,164.1 139.7,85.1 144.9,6.1 139.7,85.1 144.6,112.2 139.7,85.1 134.7,58.1 139.7,85.1 103.3,88.8 
			139.7,85.1 176,81.4 139.7,85.1 167.4,122.2 139.7,85.1 111.9,48 139.7,85.1 89.8,105.8 139.7,85.1 189.5,64.4 139.7,85.1 
			201.1,164.7 139.7,85.1 78.2,5.6 139.7,85.1 32.8,130.8 139.7,85.1 246.5,39.4 139.7,85.1 165.5,90.3 139.7,85.1 113.8,79.9 
			139.7,85.1 132.7,104.4 139.7,85.1 146.6,65.9 139.7,85.1 169.7,153 139.7,85.1 109.6,17.2 139.7,85.1 48.4,107.5 139.7,85.1 
			230.9,62.8 139.7,85.1 141.7,125.9 139.7,85.1 137.7,44.3 139.7,85.1 84.8,86.6 139.7,85.1 194.5,83.6 139.7,85.1 145.8,134.1 
			139.7,85.1 133.5,36.1 139.7,85.1 73.9,89.7 139.7,85.1 205.5,80.6 139.7,85.1 182.8,98 139.7,85.1 96.5,72.3 139.7,85.1 
			122.4,117.2 139.7,85.1 156.9,53 139.7,85.1 246.1,142.7 139.7,85.1 33.2,27.6 139.7,85.1 62.3,164.3 139.7,85.1 217,5.9 
			139.7,85.1 254,104.8 139.7,85.1 25.3,65.4 139.7,85.1 113.2,170.2 139.7,85.1 166.1,0 139.7,85.1 171.4,91.3 139.7,85.1 
			107.9,79 139.7,85.1 131.4,108.8 139.7,85.1 147.9,61.5 139.7,85.1 253.1,96.2 139.7,85.1 26.2,74 139.7,85.1 124.7,169.5 
			139.7,85.1 154.6,0.7 		"/>
		
			<radialGradient id="SVGID_1_" cx="144.2301" cy="756.122" r="61.6381" gradientTransform="matrix(0.8976 0 0 -0.6681 10.2391 590.2551)" gradientUnits="userSpaceOnUse">
			<stop  offset="0" style="stop-color:#000000"/>
			<stop  offset="0.73" style="stop-color:#834A29"/>
			<stop  offset="1" style="stop-color:#000000"/>
		</radialGradient>
		<ellipse class="st3" cx="139.7" cy="85.1" rx="55.3" ry="41.2"/>
		
			<radialGradient id="SVGID_2_" cx="144.2301" cy="756.122" r="30.7722" gradientTransform="matrix(0.8976 0 0 -0.6681 10.2391 590.2551)" gradientUnits="userSpaceOnUse">
			<stop  offset="0.15" style="stop-color:#FFFFFF"/>
			<stop  offset="0.2052" style="stop-color:#E2D7D7"/>
			<stop  offset="0.2877" style="stop-color:#BBA1A0"/>
			<stop  offset="0.3589" style="stop-color:#9E7978"/>
			<stop  offset="0.4154" style="stop-color:#8C6160"/>
			<stop  offset="0.45" style="stop-color:#865857"/>
			<stop  offset="0.4644" style="stop-color:#7F5453"/>
			<stop  offset="0.5944" style="stop-color:#49302F"/>
			<stop  offset="0.7066" style="stop-color:#211616"/>
			<stop  offset="0.7955" style="stop-color:#090606"/>
			<stop  offset="0.85" style="stop-color:#000000"/>
			<stop  offset="0.8571" style="stop-color:#040201"/>
			<stop  offset="0.8644" style="stop-color:#110804"/>
			<stop  offset="0.8719" style="stop-color:#251309"/>
			<stop  offset="0.8794" style="stop-color:#422211"/>
			<stop  offset="0.8871" style="stop-color:#68351A"/>
			<stop  offset="0.8946" style="stop-color:#954B26"/>
			<stop  offset="0.9" style="stop-color:#BA5E2F"/>
			<stop  offset="0.9045" style="stop-color:#A6542A"/>
			<stop  offset="0.9159" style="stop-color:#7B3E1F"/>
			<stop  offset="0.9278" style="stop-color:#552B15"/>
			<stop  offset="0.9402" style="stop-color:#361B0E"/>
			<stop  offset="0.953" style="stop-color:#1E0F08"/>
			<stop  offset="0.9666" style="stop-color:#0D0703"/>
			<stop  offset="0.9815" style="stop-color:#030201"/>
			<stop  offset="1" style="stop-color:#000000"/>
		</radialGradient>
		<ellipse class="st4" cx="139.7" cy="85.1" rx="27.7" ry="20.6"/>
		
			<radialGradient id="SVGID_3_" cx="144.1783" cy="756.122" r="25.6637" gradientTransform="matrix(0.8976 0 0 -0.6681 10.2391 590.2551)" gradientUnits="userSpaceOnUse">
			<stop  offset="0.15" style="stop-color:#FFFFFF"/>
			<stop  offset="0.2824" style="stop-color:#C2C2C2"/>
			<stop  offset="0.4253" style="stop-color:#888888"/>
			<stop  offset="0.5636" style="stop-color:#575757"/>
			<stop  offset="0.6936" style="stop-color:#313131"/>
			<stop  offset="0.8134" style="stop-color:#161616"/>
			<stop  offset="0.9192" style="stop-color:#060606"/>
			<stop  offset="1" style="stop-color:#000000"/>
		</radialGradient>
		<ellipse class="st5" cx="139.7" cy="85.1" rx="23" ry="17.2"/>
		<polyline class="st6" points="139.7,85.1 238.3,133.4 139.7,85.1 41,36.8 139.7,85.1 74.8,158.5 139.7,85.1 204.5,11.7 
			139.7,85.1 154.7,85.2 139.7,85.1 124.6,85.1 139.7,85.1 139.6,96.3 139.7,85.1 139.7,73.9 139.7,85.1 245.8,89 139.7,85.1 
			33.5,81.2 139.7,85.1 134.4,164.1 139.7,85.1 144.9,6.1 139.7,85.1 144.6,112.2 139.7,85.1 134.7,58.1 139.7,85.1 103.3,88.8 
			139.7,85.1 176,81.4 139.7,85.1 167.4,122.2 139.7,85.1 111.9,48 139.7,85.1 89.8,105.8 139.7,85.1 189.5,64.4 139.7,85.1 
			201.1,164.7 139.7,85.1 78.2,5.6 139.7,85.1 32.8,130.8 139.7,85.1 246.5,39.4 139.7,85.1 165.5,90.3 139.7,85.1 113.8,79.9 
			139.7,85.1 132.7,104.4 139.7,85.1 146.6,65.9 139.7,85.1 169.7,153 139.7,85.1 109.6,17.2 139.7,85.1 48.4,107.5 139.7,85.1 
			230.9,62.8 139.7,85.1 141.7,125.9 139.7,85.1 137.7,44.3 139.7,85.1 84.8,86.6 139.7,85.1 194.5,83.6 139.7,85.1 145.8,134.1 
			139.7,85.1 133.5,36.1 139.7,85.1 73.9,89.7 139.7,85.1 205.5,80.6 139.7,85.1 182.8,98 139.7,85.1 96.5,72.3 139.7,85.1 
			122.4,117.2 139.7,85.1 156.9,53 139.7,85.1 246.1,142.7 139.7,85.1 33.2,27.6 139.7,85.1 62.3,164.3 139.7,85.1 217,5.9 
			139.7,85.1 254,104.8 139.7,85.1 25.3,65.4 139.7,85.1 113.2,170.2 139.7,85.1 166.1,0 139.7,85.1 171.4,91.3 139.7,85.1 
			107.9,79 139.7,85.1 131.4,108.8 139.7,85.1 147.9,61.5 139.7,85.1 253.1,96.2 139.7,85.1 26.2,74 139.7,85.1 124.7,169.5 
			139.7,85.1 154.6,0.7 		"/>
	</g>
</g>
</svg>
